<?xml version="1.0" encoding="UTF-8" standalone="no"?>
<svg
   viewBox="0 0 1587.4016 1122.5197"
   version="1.1"
   id="svg65"
   sodipodi:docname="legacy-migration-canvas.svg"
   inkscape:version="1.4.2 (1:1.4.2+202505120737+ebf0e940d0)"
   width="420mm"
   height="297mm"
   inkscape:export-filename="legacy-migration-canvas.pdf"
   inkscape:export-xdpi="300"
   inkscape:export-ydpi="300"
   xmlns:inkscape="http://www.inkscape.org/namespaces/inkscape"
   xmlns:sodipodi="http://sodipodi.sourceforge.net/DTD/sodipodi-0.dtd"
   xmlns="http://www.w3.org/2000/svg"
   xmlns:svg="http://www.w3.org/2000/svg">
  <defs
     id="defs65" />
  <sodipodi:namedview
     id="namedview65"
     pagecolor="#ffffff"
     bordercolor="#000000"
     borderopacity="0.25"
     inkscape:showpageshadow="2"
     inkscape:pageopacity="0.0"
     inkscape:pagecheckerboard="0"
     inkscape:deskcolor="#d1d1d1"
     inkscape:zoom="1.5045661"
     inkscape:cx="564.61461"
     inkscape:cy="635.73146"
     inkscape:window-width="3840"
     inkscape:window-height="2123"
     inkscape:window-x="0"
     inkscape:window-y="0"
     inkscape:window-maximized="1"
     inkscape:current-layer="svg65"
     inkscape:document-units="mm" />
  <!-- Background and border -->
  <!-- Title Section -->
  <!-- Header fields -->
  <!-- Row 1: Business Case -->
  <!-- Money icon -->
  <!-- Row 2: Left - Current System Analysis -->
  <!-- Analysis icon -->
  <!-- Row 2: Middle - Stakeholder Needs -->
  <!-- People icon -->
  <!-- Row 2: Right - Organizational Constraints -->
  <!-- Organization icon -->
  <!-- Row 3: Left - Quality Goals -->
  <!-- Award icon -->
  <!-- Row 3: Middle - Technical Constraints -->
  <!-- Technical icon -->
  <!-- Row 3: Right - Migration Strategy -->
  <!-- Strategy icon -->
  <!-- Row 4: Left - Architectural Decisions -->
  <!-- Decisions icon -->
  <!-- Row 4: Right - Risks & Mitigation -->
  <!-- Warning icon -->
  <!-- Footer -->
  <g
     id="g78"
     transform="translate(-1.3292869,3.3232172)" />
  <!-- arc42 Logo -->
  <rect
     x="10.291139"
     y="10.291139"
     width="1567.8911"
     height="1104.0652"
     fill="#f5f5f5"
     stroke="#333333"
     stroke-width="2.58227"
     id="rect1"
     sodipodi:insensitive="true" />
  <text
     x="60.442799"
     y="72.989822"
     font-family="Arial"
     font-size="45.1693px"
     font-weight="bold"
     fill="#4285f4"
     id="text1"
     style="stroke-width:1.2547">Legacy Migration Canvas</text>
  <g
     id="g95"
     transform="translate(47.937337)">
    <rect
       x="750.52911"
       y="35.348751"
       width="351.31668"
       height="62.735119"
       fill="#ffffff"
       stroke="#cccccc"
       id="rect2"
       style="stroke-width:1.2547" />
    <text
       x="763.07617"
       y="66.716309"
       font-family="Arial"
       font-size="17.5658px"
       fill="#888888"
       id="text2"
       style="stroke-width:1.2547">System Name:</text>
    <rect
       x="1114.3928"
       y="35.348751"
       width="175.65834"
       height="62.735119"
       fill="#ffffff"
       stroke="#cccccc"
       id="rect3"
       style="stroke-width:1.2547" />
    <text
       x="1126.9398"
       y="66.716309"
       font-family="Arial"
       font-size="17.5658px"
       fill="#888888"
       id="text3"
       style="stroke-width:1.2547">Team:</text>
    <rect
       x="1302.5981"
       y="35.348751"
       width="175.65834"
       height="62.735119"
       fill="#ffffff"
       stroke="#cccccc"
       id="rect4"
       style="stroke-width:1.2547" />
    <text
       x="1315.1451"
       y="66.716309"
       font-family="Arial"
       font-size="17.5658px"
       fill="#888888"
       id="text4"
       style="stroke-width:1.2547">Date:</text>
  </g>
  <g
     id="g79"
     transform="matrix(1.0633081,0,0,0.99995847,-3.8069767,0.02465547)"
     sodipodi:insensitive="true">
    <rect
       x="60.442799"
       y="123.17792"
       width="1380.1726"
       height="150.56429"
       fill="#ffffff"
       stroke="#333333"
       id="rect5"
       style="stroke-width:1.2547" />
    <rect
       x="60.442799"
       y="286.28925"
       width="451.69287"
       height="276.03452"
       fill="#ffffff"
       stroke="#333333"
       id="rect9"
       style="stroke-width:1.2547" />
    <rect
       x="524.68268"
       y="286.28925"
       width="451.69287"
       height="276.03452"
       fill="#ffffff"
       stroke="#333333"
       id="rect15"
       style="stroke-width:1.2547" />
    <rect
       x="988.92255"
       y="286.28925"
       width="451.69287"
       height="276.03452"
       fill="#ffffff"
       stroke="#333333"
       id="rect21"
       style="stroke-width:1.2547" />
    <rect
       x="60.442799"
       y="574.87079"
       width="451.69287"
       height="276.03452"
       fill="#ffffff"
       stroke="#333333"
       id="rect30"
       style="stroke-width:1.2547" />
    <rect
       x="524.68268"
       y="574.87079"
       width="451.69287"
       height="276.03452"
       fill="#ffffff"
       stroke="#333333"
       id="rect33"
       style="stroke-width:1.2547" />
    <rect
       x="988.92255"
       y="574.87079"
       width="451.69287"
       height="276.03452"
       fill="#ffffff"
       stroke="#333333"
       id="rect41"
       style="stroke-width:1.2547" />
    <rect
       x="60.442799"
       y="863.45233"
       width="690.0863"
       height="200.75238"
       fill="#ffffff"
       stroke="#333333"
       id="rect46"
       style="stroke-width:1.2547" />
    <rect
       x="763.07617"
       y="863.45233"
       width="677.53931"
       height="200.75238"
       fill="#ffffff"
       stroke="#333333"
       id="rect50"
       style="stroke-width:1.2547" />
  </g>
  <text
     x="58.77494"
     y="1092.5864"
     font-family="Arial"
     font-size="15.0564px"
     fill="#888888"
     id="text56"
     style="stroke-width:1.2547">Legacy Migration Canvas v2.0 - based on arc42 Architecture Inception Canvas by Patrick Roos and arc42 Contributors - Attribution-ShareAlike 4.0 International</text>
  <text
     x="237.71542"
     y="1092.5864"
     font-family="Arial"
     font-size="15.0564px"
     fill="#888888"
     id="text57"
     style="stroke-width:1.2547" />
  <text
     x="828.12616"
     y="1092.5864"
     font-family="Arial"
     font-size="15.0564px"
     fill="#888888"
     id="text58"
     style="stroke-width:1.2547" />
  <text
     x="1208.4069"
     y="1092.5864"
     font-family="Arial"
     font-size="15.0564px"
     fill="#888888"
     id="text58-6"
     style="stroke-width:1.2547">Alexander Lorz - alexander@lorz-it.de 04/2025</text>
  <text
     x="72.989822"
     y="160.81898"
     font-family="Arial"
     font-size="27.6035px"
     font-weight="bold"
     fill="#4285f4"
     id="text5"
     style="stroke-width:1.2547">Business Case &amp; Value Proposition</text>
  <text
     x="72.989822"
     y="192.18655"
     font-family="Arial"
     font-size="17.5658px"
     fill="#666666"
     id="text6"
     style="stroke-width:1.2547">Describe the business drivers for the migration and specific business value to be delivered.</text>
  <text
     x="72.989822"
     y="217.28059"
     font-family="Arial"
     font-size="17.5658px"
     fill="#666666"
     id="text7"
     style="stroke-width:1.2547">What problems will be solved and what new opportunities will be enabled?</text>
  <g
     id="g82"
     transform="translate(66.736292)">
    <circle
       cx="1392.8118"
       cy="202.32756"
       r="37.641071"
       fill="#ffffff"
       stroke="#333333"
       id="circle7"
       style="stroke-width:1.2547" />
    <path
       d="m 1392.8118,192.28994 c -5.5458,0 -10.0377,4.49184 -10.0377,10.03762 0,5.54579 4.4919,10.03762 10.0377,10.03762 5.5457,0 10.0376,-4.49183 10.0376,-10.03762 0,-5.54578 -4.4919,-10.03762 -10.0376,-10.03762 z m 0,17.56584 c -4.1606,0 -7.5283,-3.36762 -7.5283,-7.52822 0,-4.16059 3.3677,-7.52821 7.5283,-7.52821 4.1605,0 7.5282,3.36762 7.5282,7.52821 0,4.1606 -3.3677,7.52822 -7.5282,7.52822 z"
       fill="#333333"
       id="path7"
       style="stroke-width:0.0501881" />
    <path
       d="m 1392.8118,199.81816 c -1.3852,0 -2.5094,1.12421 -2.5094,2.5094 0,1.38519 1.1242,2.50941 2.5094,2.50941 1.3851,0 2.5094,-1.12422 2.5094,-2.50941 0,-1.38519 -1.1243,-2.5094 -2.5094,-2.5094 z"
       fill="#333333"
       id="path8"
       style="stroke-width:0.0501881" />
    <path
       d="m 1392.8118,177.23351 c -13.857,0 -25.0941,11.23712 -25.0941,25.09405 0,13.85694 11.2371,25.09405 25.0941,25.09405 13.8569,0 25.094,-11.23711 25.094,-25.09405 0,-13.85693 -11.2371,-25.09405 -25.094,-25.09405 z m 0,45.16929 c -11.0916,0 -20.0753,-8.98367 -20.0753,-20.07524 0,-11.09157 8.9837,-20.07524 20.0753,-20.07524 11.0915,0 20.0752,8.98367 20.0752,20.07524 0,11.09157 -8.9837,20.07524 -20.0752,20.07524 z"
       fill="#333333"
       id="path9"
       style="stroke-width:0.0501881" />
  </g>
  <text
     x="72.989822"
     y="323.9303"
     font-family="Arial"
     font-size="27.6035px"
     font-weight="bold"
     fill="#4285f4"
     id="text9"
     style="stroke-width:1.2547">Current System Analysis</text>
  <text
     x="72.989822"
     y="355.29785"
     font-family="Arial"
     font-size="17.5658px"
     fill="#666666"
     id="text10"
     style="stroke-width:1.2547">Key pain points and limitations</text>
  <text
     x="72.989822"
     y="380.39191"
     font-family="Arial"
     font-size="17.5658px"
     fill="#666666"
     id="text11"
     style="stroke-width:1.2547">Technical debt assessment</text>
  <text
     x="72.989822"
     y="405.48596"
     font-family="Arial"
     font-size="17.5658px"
     fill="#666666"
     id="text12"
     style="stroke-width:1.2547">Components to keep, modify, or replace</text>
  <text
     x="72.989822"
     y="430.58002"
     font-family="Arial"
     font-size="17.5658px"
     fill="#666666"
     id="text13"
     style="stroke-width:1.2547">Current usage patterns and metrics</text>
  <g
     id="g80"
     transform="translate(25.37859,0.67687988)">
    <rect
       x="436.85352"
       y="298.83624"
       width="62.735119"
       height="62.735119"
       fill="#ffffff"
       stroke="#cccccc"
       rx="6.2735119"
       ry="6.2735119"
       id="rect13"
       style="stroke-width:1.2547" />
    <path
       d="m 488.29632,310.12858 h -40.15048 c -2.77038,0 -5.01881,2.24843 -5.01881,5.01881 v 30.11286 c 0,2.77038 2.24843,5.01881 5.01881,5.01881 h 40.15048 c 2.77038,0 5.01881,-2.24843 5.01881,-5.01881 v -30.11286 c 0,-2.77038 -2.24843,-5.01881 -5.01881,-5.01881 z m 2.5094,35.13167 c 0,1.38519 -1.12421,2.50941 -2.5094,2.50941 h -40.15048 c -1.38519,0 -2.50941,-1.12422 -2.50941,-2.50941 v -30.11286 c 0,-1.38519 1.12422,-2.5094 2.50941,-2.5094 h 40.15048 c 1.38519,0 2.5094,1.12421 2.5094,2.5094 z"
       fill="#333333"
       id="path13"
       style="stroke-width:0.0501881" />
    <path
       d="m 453.16465,320.1662 h 5.01881 v 2.50941 h -5.01881 z m 0,5.01881 h 5.01881 v 2.50941 h -5.01881 z m 0,5.01881 h 5.01881 v 2.50941 h -5.01881 z m 0,5.01881 h 5.01881 v 2.5094 h -5.01881 z"
       fill="#333333"
       id="path14"
       style="stroke-width:0.0501881" />
    <path
       d="m 460.69286,320.1662 h 22.58465 v 2.50941 h -22.58465 z m 0,5.01881 h 22.58465 v 2.50941 h -22.58465 z m 0,5.01881 h 22.58465 v 2.50941 h -22.58465 z m 0,5.01881 h 22.58465 v 2.5094 h -22.58465 z"
       fill="#333333"
       id="path15"
       style="stroke-width:0.0501881" />
  </g>
  <g
     id="g94"
     transform="translate(28.198433)">
    <text
       x="537.22974"
       y="323.9303"
       font-family="Arial"
       font-size="27.6035px"
       font-weight="bold"
       fill="#4285f4"
       id="text15"
       style="stroke-width:1.2547">Stakeholder Needs</text>
    <text
       x="537.22974"
       y="355.29785"
       font-family="Arial"
       font-size="17.5658px"
       fill="#666666"
       id="text16"
       style="stroke-width:1.2547">End user requirements and pain points</text>
    <text
       x="537.22974"
       y="380.39191"
       font-family="Arial"
       font-size="17.5658px"
       fill="#666666"
       id="text17"
       style="stroke-width:1.2547">Business department requirements</text>
    <text
       x="537.22974"
       y="405.48596"
       font-family="Arial"
       font-size="17.5658px"
       fill="#666666"
       id="text18"
       style="stroke-width:1.2547">IT operations and support needs</text>
    <text
       x="537.22974"
       y="430.58002"
       font-family="Arial"
       font-size="17.5658px"
       fill="#666666"
       id="text19"
       style="stroke-width:1.2547">Compliance and security requirements</text>
  </g>
  <g
     id="g92"
     transform="translate(54.516971)">
    <circle
       cx="931.98688"
       cy="332.26959"
       r="37.641071"
       fill="#ffffff"
       stroke="#333333"
       id="circle19"
       style="stroke-width:1.2547" />
    <g
       transform="matrix(0.0501881,0,0,0.0501881,906.89284,307.17555)"
       id="g21">
      <path
         d="M 500,0 C 224,0 0,224 0,500 c 0,276 224,500 500,500 276,0 500,-224 500,-500 C 1000,224 776,0 500,0 Z m 0,960 C 246,960 40,754 40,500 40,246 246,40 500,40 754,40 960,246 960,500 960,754 754,960 500,960 Z"
         fill="#333333"
         id="path19" />
      <path
         d="m 500,300 c 55.2,0 100,44.8 100,100 0,55.2 -44.8,100 -100,100 -55.2,0 -100,-44.8 -100,-100 0,-55.2 44.8,-100 100,-100 z"
         fill="#333333"
         id="path20" />
      <path
         d="M 680,550 H 320 c -11,0 -20,9 -20,20 0,99 67,190 200,190 133,0 200,-91 200,-190 0,-11 -9,-20 -20,-20 z"
         fill="#333333"
         id="path21" />
    </g>
  </g>
  <g
     id="g88"
     transform="translate(61.096606)">
    <text
       x="1001.4696"
       y="323.9303"
       font-family="Arial"
       font-size="27.6035px"
       font-weight="bold"
       fill="#4285f4"
       id="text21"
       style="stroke-width:1.2547">Organizational Constraints</text>
    <text
       x="1001.4696"
       y="355.29785"
       font-family="Arial"
       font-size="17.5658px"
       fill="#666666"
       id="text22"
       style="stroke-width:1.2547">Timeline and budget limitations</text>
    <text
       x="1001.4696"
       y="380.39191"
       font-family="Arial"
       font-size="17.5658px"
       fill="#666666"
       id="text23"
       style="stroke-width:1.2547">Available resources and expertise</text>
    <text
       x="1001.4696"
       y="405.48596"
       font-family="Arial"
       font-size="17.5658px"
       fill="#666666"
       id="text24"
       style="stroke-width:1.2547">Required governance and compliance</text>
    <text
       x="1001.4696"
       y="430.58002"
       font-family="Arial"
       font-size="17.5658px"
       fill="#666666"
       id="text25"
       style="stroke-width:1.2547">Business continuity requirements</text>
  </g>
  <text
     x="72.989822"
     y="612.51184"
     font-family="Arial"
     font-size="27.6035px"
     font-weight="bold"
     fill="#4285f4"
     id="text30"
     style="stroke-width:1.2547">Quality Goals</text>
  <text
     x="72.989822"
     y="643.87939"
     font-family="Arial"
     font-size="17.5658px"
     fill="#666666"
     id="text31"
     style="stroke-width:1.2547">The three most important quality goals for</text>
  <text
     x="72.989822"
     y="668.97345"
     font-family="Arial"
     font-size="17.5658px"
     fill="#666666"
     id="text32"
     style="stroke-width:1.2547">the migration, addressing key stakeholder</text>
  <text
     x="72.989822"
     y="694.0675"
     font-family="Arial"
     font-size="17.5658px"
     fill="#666666"
     id="text33"
     style="stroke-width:1.2547">concerns and business drivers.</text>
  <g
     id="g81"
     transform="translate(25.37859)">
    <circle
       cx="465.24521"
       cy="622.51898"
       r="37.641071"
       fill="#ffffff"
       stroke="#333333"
       id="circle33"
       style="stroke-width:1.2547" />
    <g
       transform="matrix(0.0501881,0,0,0.0501881,440.15116,597.42496)"
       id="g33">
      <path
         d="m 500,0 114,350 h 386 L 688,576 807,940 500,717 193,940 312,576 0,350 h 386 z"
         fill="none"
         stroke="#333333"
         stroke-width="40"
         id="path33" />
    </g>
  </g>
  <g
     id="g93"
     transform="translate(28.198433)">
    <text
       x="537.22974"
       y="612.51184"
       font-family="Arial"
       font-size="27.6035px"
       font-weight="bold"
       fill="#4285f4"
       id="text34"
       style="stroke-width:1.2547">Technical Constraints</text>
    <text
       x="537.22974"
       y="643.87939"
       font-family="Arial"
       font-size="17.5658px"
       fill="#666666"
       id="text35"
       style="stroke-width:1.2547">Legacy interfaces that must be maintained</text>
    <text
       x="537.22974"
       y="668.97345"
       font-family="Arial"
       font-size="17.5658px"
       fill="#666666"
       id="text36"
       style="stroke-width:1.2547">Technology stack requirements or limitations</text>
    <text
       x="537.22974"
       y="694.0675"
       font-family="Arial"
       font-size="17.5658px"
       fill="#666666"
       id="text37"
       style="stroke-width:1.2547">Integration points with external systems</text>
    <text
       x="537.22974"
       y="719.16156"
       font-family="Arial"
       font-size="17.5658px"
       fill="#666666"
       id="text38"
       style="stroke-width:1.2547">Infrastructure and deployment constraints</text>
  </g>
  <g
     id="g91"
     transform="translate(54.516971,4.165802)">
    <circle
       cx="931.98688"
       cy="618.34937"
       r="37.641071"
       fill="#ffffff"
       stroke="#333333"
       id="circle38"
       style="stroke-width:1.2547" />
    <g
       transform="matrix(0.0501881,0,0,0.0501881,906.89284,593.25531)"
       id="g41">
      <path
         d="m 500,200 c -33.1,0 -60,26.9 -60,60 v 200 c 0,33.1 26.9,60 60,60 33.1,0 60,-26.9 60,-60 V 260 c 0,-33.1 -26.9,-60 -60,-60 z"
         fill="#333333"
         id="path38" />
      <path
         d="m 860,500 c 0,-33.1 -26.9,-60 -60,-60 H 640 c -33.1,0 -60,26.9 -60,60 0,33.1 26.9,60 60,60 h 160 c 33.1,0 60,-26.9 60,-60 z"
         fill="#333333"
         id="path39" />
      <path
         d="m 500,640 c -33.1,0 -60,26.9 -60,60 v 40 c 0,33.1 26.9,60 60,60 33.1,0 60,-26.9 60,-60 v -40 c 0,-33.1 -26.9,-60 -60,-60 z"
         fill="#333333"
         id="path40" />
      <path
         d="m 380,500 c 0,-33.1 -26.9,-60 -60,-60 H 200 c -33.1,0 -60,26.9 -60,60 0,33.1 26.9,60 60,60 h 120 c 33.1,0 60,-26.9 60,-60 z"
         fill="#333333"
         id="path41" />
    </g>
  </g>
  <g
     id="g89"
     transform="translate(61.096606)">
    <text
       x="1001.4696"
       y="643.87939"
       font-family="Arial"
       font-size="17.5658px"
       fill="#666666"
       id="text42"
       style="stroke-width:1.2547">Migration approach (big bang, incremental, ...)</text>
    <g
       id="g87">
      <text
         x="1001.4696"
         y="612.51184"
         font-family="Arial"
         font-size="27.6035px"
         font-weight="bold"
         fill="#4285f4"
         id="text41"
         style="stroke-width:1.2547">Migration Strategy</text>
      <text
         x="1001.4696"
         y="668.97345"
         font-family="Arial"
         font-size="17.5658px"
         fill="#666666"
         id="text43"
         style="stroke-width:1.2547">Phasing and prioritization approach</text>
      <text
         x="1001.4696"
         y="694.0675"
         font-family="Arial"
         font-size="17.5658px"
         fill="#666666"
         id="text44"
         style="stroke-width:1.2547">Testing and validation strategy</text>
      <text
         x="1001.4696"
         y="719.16156"
         font-family="Arial"
         font-size="17.5658px"
         fill="#666666"
         id="text45"
         style="stroke-width:1.2547">Rollout and transition approach</text>
    </g>
  </g>
  <g
     id="g84"
     transform="translate(81.775457,4.165802)">
    <circle
       cx="1398.7134"
       cy="618.35699"
       r="37.641071"
       fill="#ffffff"
       stroke="#333333"
       id="circle45"
       style="stroke-width:1.2547" />
    <path
       d="m 1413.7698,612.08346 -15.0564,-15.05643 -15.0564,15.05643 2.5094,2.50941 10.0376,-10.03762 v 35.13166 h 5.0188 v -35.13166 l 10.0376,10.03762 z"
       fill="#333333"
       id="path45"
       style="stroke-width:0.0501881" />
  </g>
  <text
     x="72.989822"
     y="901.09338"
     font-family="Arial"
     font-size="27.6035px"
     font-weight="bold"
     fill="#4285f4"
     id="text46"
     style="stroke-width:1.2547">Key Architectural Decisions</text>
  <text
     x="72.989822"
     y="932.46094"
     font-family="Arial"
     font-size="17.5658px"
     fill="#666666"
     id="text47"
     style="stroke-width:1.2547">Critical architectural decisions for the migration,</text>
  <text
     x="72.989822"
     y="957.55499"
     font-family="Arial"
     font-size="17.5658px"
     fill="#666666"
     id="text48"
     style="stroke-width:1.2547">including technology choices, patterns, approach</text>
  <text
     x="72.989822"
     y="982.64905"
     font-family="Arial"
     font-size="17.5658px"
     fill="#666666"
     id="text49"
     style="stroke-width:1.2547">to data migration, and scalability considerations.</text>
  <g
     id="g96"
     transform="translate(41.357702,2.8463975)">
    <circle
       cx="707.80829"
       cy="906.93091"
       r="37.641071"
       fill="#ffffff"
       stroke="#333333"
       id="circle49"
       style="stroke-width:1.2547" />
    <g
       transform="matrix(0.0501881,0,0,0.0501881,682.71426,881.83687)"
       id="g50">
      <path
         d="M 900,200 H 100 C 44.8,200 0,244.8 0,300 v 400 c 0,55.2 44.8,100 100,100 h 800 c 55.2,0 100,-44.8 100,-100 V 300 c 0,-55.2 -44.8,-100 -100,-100 z m 50,500 c 0,27.6 -22.4,50 -50,50 H 100 C 72.4,750 50,727.6 50,700 V 300 c 0,-27.6 22.4,-50 50,-50 h 800 c 27.6,0 50,22.4 50,50 z"
         fill="#333333"
         id="path49" />
      <path
         d="m 400,400 -100,100 100,100 50,-50 -50,-50 50,-50 z m 150,0 -50,50 50,50 -50,50 100,100 100,-100 z"
         fill="#333333"
         id="path50" />
    </g>
  </g>
  <g
     id="g90"
     transform="translate(44.177546)">
    <text
       x="775.62317"
       y="901.09338"
       font-family="Arial"
       font-size="27.6035px"
       font-weight="bold"
       fill="#4285f4"
       id="text50"
       style="stroke-width:1.2547">Risks &amp; Mitigation</text>
    <text
       x="775.62317"
       y="932.46094"
       font-family="Arial"
       font-size="17.5658px"
       fill="#666666"
       id="text51"
       style="stroke-width:1.2547">Identified technical risks and their mitigation strategies</text>
    <text
       x="775.62317"
       y="957.55499"
       font-family="Arial"
       font-size="17.5658px"
       fill="#666666"
       id="text52"
       style="stroke-width:1.2547">Business continuity risks and contingency plans</text>
    <text
       x="775.62317"
       y="982.64905"
       font-family="Arial"
       font-size="17.5658px"
       fill="#666666"
       id="text53"
       style="stroke-width:1.2547">Data migration risks and verification strategies</text>
  </g>
  <g
     id="g83"
     transform="translate(88.324429,2.8463975)">
    <circle
       cx="1393.725"
       cy="907.76483"
       r="37.641071"
       fill="#ffffff"
       stroke="#333333"
       id="circle53"
       style="stroke-width:1.2547" />
    <g
       transform="matrix(0.0501881,0,0,0.0501881,1368.6309,881.18019)"
       id="g55">
      <path
         d="M 500,50 50,850 h 900 z m 0,100 350,600 H 150 Z"
         fill="#333333"
         id="path53" />
      <path
         d="m 500,650 c -27.6,0 -50,22.4 -50,50 0,27.6 22.4,50 50,50 27.6,0 50,-22.4 50,-50 0,-27.6 -22.4,-50 -50,-50 z"
         fill="#333333"
         id="path54" />
      <path
         d="M 500,350 V 550"
         stroke="#333333"
         stroke-width="100"
         stroke-linecap="round"
         id="path55" />
    </g>
  </g>
  <g
     id="g86"
     transform="translate(81.744795,0.67687988)">
    <circle
       cx="1397.1835"
       cy="331.59271"
       r="37.641071"
       fill="#ffffff"
       stroke="#333333"
       id="circle45-7"
       style="stroke-width:1.2547" />
    <g
       id="g85">
      <g
         transform="matrix(0.07528214,0,0,0.07528214,1397.0607,317.22079)"
         id="g71">
        <rect
           x="-200"
           y="-200"
           width="400"
           height="200"
           fill="none"
           stroke="#333333"
           stroke-width="20"
           id="rect68" />
        <rect
           x="-200"
           y="100"
           width="150"
           height="200"
           fill="none"
           stroke="#333333"
           stroke-width="20"
           id="rect69" />
        <rect
           x="50"
           y="100"
           width="150"
           height="200"
           fill="none"
           stroke="#333333"
           stroke-width="20"
           id="rect70" />
        <rect
           x="-75"
           y="400"
           width="150"
           height="200"
           fill="none"
           stroke="#333333"
           stroke-width="20"
           id="rect71" />
      </g>
    </g>
  </g>
  <g
     inkscape:groupmode="layer"
     id="layer1"
     inkscape:label="Layer 1" />
</svg>
